<svg width="85" height="25" viewBox="0 0 85 25" fill="none" xmlns="http://www.w3.org/2000/svg">
<rect x="0.833328" y="2.38095" width="20.2381" height="20.2381" rx="5.95238" fill="#0ACF83"/>
<mask id="mask0_648_537" style="mask-type:alpha" maskUnits="userSpaceOnUse" x="0" y="2" width="22" height="21">
<rect x="0.833328" y="2.38098" width="20.2381" height="20.2381" rx="5.95238" fill="#0ACF83"/>
</mask>
<g mask="url(#mask0_648_537)">
<path d="M13.9023 12.0182C14.2974 13.4929 13.4206 15.0092 11.9438 15.4049C10.467 15.8006 8.94951 14.9259 8.55436 13.4511C8.15921 11.9764 9.03605 10.4601 10.5128 10.0644C11.9896 9.66873 13.5071 10.5435 13.9023 12.0182Z" fill="white"/>
<path fill-rule="evenodd" clip-rule="evenodd" d="M0.602725 3.89791C0.227602 4.27258 0.22739 4.87983 0.602251 5.25424L5.30891 9.9552C4.67253 11.3039 4.49217 12.8758 4.90813 14.4282C5.84213 17.9139 9.42895 19.9814 12.9195 19.0461C16.4101 18.1108 18.4826 14.5269 17.5486 11.0412C16.6146 7.55546 13.0278 5.48794 9.53724 6.42324C9.01171 6.56406 8.51831 6.76491 8.06249 7.01643L3.4502 2.40972C3.07534 2.03532 2.46736 2.03553 2.09224 2.4102L0.602725 3.89791ZM12.2041 16.3759C14.2178 15.8363 15.4135 13.7687 14.8747 11.7577C14.3358 9.74672 12.2665 8.55392 10.2527 9.09352C8.23894 9.63311 7.04325 11.7008 7.5821 13.7118C8.12094 15.7227 10.1903 16.9155 12.2041 16.3759Z" fill="white"/>
</g>
<path d="M28.6333 19L33.5095 5.66667H36.4238L41.2809 19H38.5571L34.9381 8.6L31.319 19H28.6333ZM30.7857 15.9714L31.4714 13.9714H38.2524L38.919 15.9714H30.7857ZM46.5708 19.2286C45.7962 19.2286 45.1295 19.0698 44.5708 18.7524C44.0248 18.4222 43.6057 17.9333 43.3137 17.2857C43.0343 16.6381 42.8946 15.8508 42.8946 14.9238V9.47619H45.447V14.6571C45.447 15.4444 45.6057 16.0413 45.9232 16.4476C46.2407 16.854 46.7422 17.0571 47.428 17.0571C47.8597 17.0571 48.2407 16.9556 48.5708 16.7524C48.9137 16.5492 49.1803 16.2571 49.3708 15.8762C49.574 15.4952 49.6756 15.0317 49.6756 14.4857V9.47619H52.247V19H49.9803L49.7899 17.419C49.4851 17.9651 49.0597 18.4032 48.5137 18.7333C47.9803 19.0635 47.3327 19.2286 46.5708 19.2286ZM59.2705 19.2286C58.3943 19.2286 57.607 19.0127 56.9086 18.581C56.2229 18.1492 55.6769 17.5587 55.2705 16.8095C54.8769 16.0476 54.68 15.1905 54.68 14.2381C54.68 13.273 54.8769 12.4159 55.2705 11.6667C55.6769 10.9175 56.2293 10.327 56.9277 9.89524C57.6388 9.46349 58.4324 9.24762 59.3086 9.24762C60.007 9.24762 60.6166 9.38095 61.1372 9.64762C61.6578 9.90159 62.0769 10.2571 62.3943 10.7143V5.28571H64.9658V19H62.68L62.3943 17.6857C62.2039 17.9651 61.9626 18.2254 61.6705 18.4667C61.3912 18.6952 61.0546 18.8794 60.661 19.019C60.2673 19.1587 59.8039 19.2286 59.2705 19.2286ZM59.88 16.981C60.388 16.981 60.8324 16.8667 61.2134 16.6381C61.607 16.3968 61.9118 16.073 62.1277 15.6667C62.3435 15.2476 62.4515 14.7714 62.4515 14.2381C62.4515 13.6921 62.3435 13.2159 62.1277 12.8095C61.9118 12.3905 61.607 12.0667 61.2134 11.8381C60.8324 11.6095 60.3816 11.4952 59.861 11.4952C59.3785 11.4952 58.9404 11.6159 58.5467 11.8571C58.1531 12.0857 57.8419 12.4095 57.6134 12.8286C57.3975 13.2349 57.2896 13.6984 57.2896 14.219C57.2896 14.7651 57.3975 15.2476 57.6134 15.6667C57.8419 16.073 58.1531 16.3968 58.5467 16.6381C58.9404 16.8667 59.3848 16.981 59.88 16.981ZM67.7614 19V9.47619H70.3329V19H67.7614ZM69.0567 8.14286C68.5868 8.14286 68.2059 8.00317 67.9138 7.72381C67.6218 7.44444 67.4757 7.09524 67.4757 6.67619C67.4757 6.25714 67.6218 5.91429 67.9138 5.64762C68.2059 5.38095 68.5868 5.24762 69.0567 5.24762C69.5265 5.24762 69.9075 5.38095 70.1995 5.64762C70.5043 5.91429 70.6567 6.25714 70.6567 6.67619C70.6567 7.09524 70.5043 7.44444 70.1995 7.72381C69.9075 8.00317 69.5265 8.14286 69.0567 8.14286ZM77.6841 19.2286C76.7698 19.2286 75.9444 19.019 75.2079 18.6C74.4841 18.1683 73.9063 17.5778 73.4745 16.8286C73.0555 16.0794 72.846 15.2159 72.846 14.2381C72.846 13.2603 73.0555 12.3968 73.4745 11.6476C73.9063 10.8984 74.4904 10.3143 75.2269 9.89524C75.9634 9.46349 76.7888 9.24762 77.7031 9.24762C78.6174 9.24762 79.4428 9.46349 80.1793 9.89524C80.9158 10.3143 81.4936 10.8984 81.9126 11.6476C82.3444 12.3968 82.5603 13.2603 82.5603 14.2381C82.5603 15.2159 82.3444 16.0794 81.9126 16.8286C81.4809 17.5778 80.8968 18.1683 80.1603 18.6C79.4364 19.019 78.611 19.2286 77.6841 19.2286ZM77.6841 17C78.1031 17 78.4777 16.8984 78.8079 16.6952C79.1507 16.4921 79.4237 16.1873 79.6269 15.781C79.8301 15.3619 79.9317 14.8476 79.9317 14.2381C79.9317 13.6286 79.8301 13.1206 79.6269 12.7143C79.4237 12.2952 79.1507 11.9841 78.8079 11.781C78.4777 11.5778 78.1095 11.4762 77.7031 11.4762C77.2968 11.4762 76.9222 11.5778 76.5793 11.781C76.2364 11.9841 75.9634 12.2952 75.7603 12.7143C75.5571 13.1206 75.4555 13.6286 75.4555 14.2381C75.4555 14.8476 75.5571 15.3619 75.7603 15.781C75.9634 16.1873 76.2301 16.4921 76.5603 16.6952C76.9031 16.8984 77.2777 17 77.6841 17Z" fill="black"/>
</svg>
